<?xml version="1.0" standalone="no"?>
<!DOCTYPE svg PUBLIC "-//W3C//DTD SVG 20010904//EN"
 "http://www.w3.org/TR/2001/REC-SVG-20010904/DTD/svg10.dtd">
<svg version="1.0" xmlns="http://www.w3.org/2000/svg"
 width="181.000000pt" height="185.000000pt" viewBox="0 0 181.000000 185.000000"
 preserveAspectRatio="xMidYMid meet">

<g transform="translate(0.000000,185.000000) scale(0.100000,-0.100000)"
fill="#000000" stroke="none">
<path d="M832 1664 c-34 -20 -62 -38 -62 -42 0 -6 269 -159 568 -322 l112 -61
0 -83 0 -82 -122 -72 -123 -73 -3 61 c-2 33 -2 85 0 115 l3 54 78 -45 c44 -24
81 -44 83 -44 2 0 4 28 4 63 l0 63 -340 193 -340 192 -55 -31 c-30 -17 -55
-35 -55 -38 0 -4 94 -58 208 -121 114 -63 224 -125 244 -138 l38 -23 2 -172
c3 -148 5 -173 18 -170 27 6 -32 -48 -93 -85 -44 -26 -55 -38 -45 -45 26 -17
107 -58 117 -58 10 0 399 224 410 236 3 4 0 4 -8 -1 -9 -5 -12 -4 -7 3 4 6 12
9 19 6 16 -6 60 34 52 47 -4 5 -8 9 -11 9 -3 0 -3 -4 1 -9 3 -5 1 -12 -5 -16
-5 -3 -10 1 -10 10 0 8 10 20 23 25 12 5 16 9 9 9 -8 1 -10 6 -5 14 8 14 12
28 15 74 2 17 7 29 11 26 5 -3 7 1 6 8 -1 8 1 21 5 30 4 9 6 44 4 78 l-3 63
-210 121 c-115 66 -246 140 -290 165 -44 24 -103 56 -131 72 l-51 28 -61 -34z"/>
<path d="M379 1407 c-58 -34 -122 -72 -142 -84 l-37 -22 0 -379 c0 -348 1
-380 18 -394 20 -18 106 -68 115 -68 4 0 7 175 7 389 l0 389 69 36 c38 20 73
36 79 36 15 0 222 -121 222 -130 0 -8 -151 -100 -163 -100 -4 0 -7 41 -7 90
l0 90 -70 -35 -70 -35 2 -387 3 -387 65 -38 65 -38 3 297 3 298 149 88 149 88
78 -46 78 -45 3 76 c2 43 -1 81 -5 85 -9 9 -501 289 -505 288 -2 0 -50 -28
-109 -62z"/>
<path d="M670 927 l-55 -33 0 -294 0 -294 135 -78 c74 -43 138 -78 142 -78 4
0 124 66 265 146 142 81 295 167 340 193 l82 46 1 68 0 67 -41 -20 c-22 -12
-100 -55 -172 -97 -73 -42 -166 -95 -207 -118 -75 -42 -125 -70 -210 -119 -25
-14 -51 -26 -58 -26 -8 0 -45 19 -83 41 l-69 41 0 294 c0 162 -3 294 -7 294
-5 0 -33 -15 -63 -33z"/>
<path d="M1510 871 c-36 -21 -148 -86 -250 -145 -102 -59 -251 -146 -332 -193
-82 -46 -148 -86 -148 -88 0 -2 25 -17 56 -35 l56 -31 222 122 c121 67 276
153 344 191 l122 69 0 75 c0 41 -1 74 -2 73 -2 -1 -32 -18 -68 -38z"/>
</g>
</svg>
